<svg width="70" height="70" viewBox="0 0 70 70" fill="none" xmlns="http://www.w3.org/2000/svg">
<path d="M65.835 51.1349L58.87 47.1799V40.2849C58.87 39.5499 58.275 38.9549 57.54 38.9549C56.805 38.9549 56.21 39.5499 56.21 40.2849V45.7099L53.165 43.9599C52.5 43.6449 51.73 43.8899 51.415 44.5549C51.135 45.1499 51.31 45.8849 51.87 46.2349L54.95 47.9849L36.295 58.7999V50.4349C44.31 49.7349 50.47 43.0499 50.47 34.9999C50.47 32.7249 49.98 30.4849 49 28.4199L56.245 24.2199V29.6099C56.245 30.3449 56.84 30.9399 57.575 30.9399C58.31 30.9399 58.905 30.3449 58.905 29.6099V21.9799C58.905 21.5249 58.66 21.0699 58.24 20.8249L36.33 8.1549V2.7299C36.33 1.9949 35.735 1.3999 35 1.3999C34.265 1.3999 33.67 1.9949 33.67 2.7299V8.1899L11.76 20.8249C11.34 21.0699 11.095 21.4899 11.095 21.9799V30.0299C11.095 30.7649 11.69 31.3599 12.425 31.3599C13.16 31.3599 13.755 30.7649 13.755 30.0299V24.2549L21 28.4549C17.36 36.1899 20.72 45.4299 28.49 49.0349C30.135 49.8049 31.92 50.2949 33.74 50.4349V58.7999L15.05 48.0199L17.045 46.8649C17.675 46.5149 17.885 45.7099 17.535 45.0799C17.185 44.4499 16.38 44.2399 15.75 44.6249L13.755 45.7799V39.5849C13.755 38.8499 13.16 38.2549 12.425 38.2549C11.69 38.2549 11.095 38.8499 11.095 39.5849V47.2849L5.285 50.6449C4.655 50.9949 4.445 51.7999 4.795 52.4299C5.04 52.8499 5.495 53.0949 5.95 53.0949C6.195 53.0949 6.405 53.0249 6.615 52.9199L12.425 49.5599L34.3 62.1949C34.72 62.4049 35.21 62.4049 35.63 62.1949L57.61 49.4899L64.505 53.4099C64.715 53.5149 64.925 53.5849 65.135 53.5849C65.625 53.5849 66.045 53.3399 66.29 52.9199C66.71 52.2899 66.465 51.4849 65.835 51.1349ZM15.05 21.9799L33.67 11.1999V15.2949C33.67 16.0299 34.265 16.6249 35 16.6249C35.735 16.6249 36.33 16.0299 36.33 15.2949V11.1999L54.95 21.9799L47.705 26.1799C42.84 19.1799 33.18 17.4299 26.18 22.2949C24.675 23.3449 23.345 24.6749 22.295 26.1799L15.05 21.9799ZM35 47.8799C27.895 47.8799 22.155 42.1049 22.155 34.9999C22.155 27.8949 27.895 22.1549 35 22.1549C42.105 22.1549 47.88 27.9299 47.88 35.0349C47.845 42.1049 42.105 47.8449 35 47.8799Z" fill="#FBA819"/>
<path d="M68.215 34.0549C67.97 33.8099 67.62 33.6699 67.27 33.6699C66.92 33.6699 66.605 33.8099 66.325 34.0549C66.08 34.2999 65.94 34.6499 65.94 34.9999C65.94 35.3499 66.08 35.6649 66.325 35.9449C66.57 36.1899 66.92 36.3299 67.27 36.3299C67.62 36.3299 67.935 36.1899 68.215 35.9449C68.46 35.6999 68.6 35.3499 68.6 34.9999C68.6 34.6499 68.46 34.3349 68.215 34.0549Z" fill="#FBA819"/>
<path d="M63.28 34.0549C63.035 33.8099 62.685 33.6699 62.335 33.6699C61.985 33.6699 61.67 33.8099 61.39 34.0549C61.145 34.2999 61.005 34.6499 61.005 34.9999C61.005 35.3499 61.145 35.6649 61.39 35.9449C61.635 36.1899 61.985 36.3299 62.335 36.3299C62.685 36.3299 63 36.1899 63.28 35.9449C63.805 35.4199 63.805 34.5799 63.28 34.0549Z" fill="#FBA819"/>
<path d="M58.52 34.0549C58.275 33.8099 57.925 33.6699 57.575 33.6699C57.225 33.6699 56.91 33.8099 56.63 34.0549C56.385 34.2999 56.245 34.6499 56.245 34.9999C56.245 35.3499 56.385 35.6649 56.63 35.9449C56.875 36.1899 57.225 36.3299 57.575 36.3299C57.925 36.3299 58.24 36.1899 58.52 35.9449C58.765 35.6999 58.905 35.3499 58.905 34.9999C58.87 34.6499 58.765 34.3349 58.52 34.0549Z" fill="#FBA819"/>
<path d="M13.37 34.0549C13.125 33.8099 12.775 33.6699 12.425 33.6699C12.075 33.6699 11.76 33.8099 11.48 34.0549C11.235 34.2999 11.095 34.6499 11.095 34.9999C11.095 35.3499 11.235 35.6649 11.48 35.9449C11.725 36.1899 12.075 36.3299 12.425 36.3299C12.775 36.3299 13.09 36.1899 13.37 35.9449C13.615 35.6999 13.755 35.3499 13.755 34.9999C13.72 34.6499 13.615 34.3349 13.37 34.0549Z" fill="#FBA819"/>
<path d="M8.43502 34.0549C8.19002 33.8099 7.84002 33.6699 7.49002 33.6699C7.14002 33.6699 6.82502 33.8099 6.54502 34.0549C6.30002 34.2999 6.16002 34.6499 6.16002 34.9999C6.16002 35.3499 6.30002 35.6649 6.54502 35.9449C6.79002 36.1899 7.14002 36.3299 7.49002 36.3299C7.84002 36.3299 8.15502 36.1899 8.43502 35.9449C8.92502 35.4199 8.92502 34.5799 8.43502 34.0549Z" fill="#FBA819"/>
<path d="M3.64 34.0549C3.395 33.8099 3.045 33.6699 2.695 33.6699C2.345 33.6699 2.03 33.8099 1.75 34.0549C1.225 34.5799 1.225 35.3849 1.75 35.9099C1.995 36.1549 2.345 36.2949 2.695 36.2949C3.045 36.2949 3.36 36.1549 3.64 35.9099C3.885 35.6649 4.025 35.3149 4.025 34.9649C4.025 34.6499 3.885 34.3349 3.64 34.0549Z" fill="#FBA819"/>
<path d="M30.765 32.48L32.305 30.94C32.83 30.415 32.83 29.61 32.305 29.085C32.06 28.84 31.71 28.7 31.395 28.7H27.09C26.355 28.7 25.76 29.295 25.76 30.03C25.76 30.765 26.355 31.36 27.09 31.36H28.245L26.81 32.795C26.285 33.32 26.285 34.125 26.81 34.65C27.055 34.895 27.405 35.035 27.72 35.035H29.855C30.87 35.035 31.71 35.875 31.71 36.89C31.71 37.905 30.87 38.745 29.855 38.745C28.84 38.745 28 37.905 28 36.89C28 36.155 27.405 35.56 26.67 35.56C25.935 35.56 25.34 36.155 25.34 36.89C25.34 39.34 27.335 41.37 29.785 41.37C32.235 41.37 34.265 39.375 34.265 36.925C34.335 34.72 32.83 32.9 30.765 32.48Z" fill="#FBA819"/>
<path d="M38.325 28.7H36.995C36.645 28.7 36.33 28.84 36.05 29.085C35.805 29.33 35.665 29.68 35.665 30.03V40.005C35.665 40.74 36.26 41.335 36.995 41.335H38.325C41.79 41.335 44.625 38.5 44.625 35.035C44.625 31.57 41.79 28.7 38.325 28.7ZM38.325 38.675V31.325C40.355 31.325 42 32.97 42 35C42 37.03 40.355 38.675 38.325 38.675Z" fill="#FBA819"/>
<path d="M12.425 1.3999H2.695C1.995 1.3999 1.4 1.9949 1.4 2.7299V12.4599C1.4 13.1949 1.995 13.7899 2.73 13.7899C3.465 13.7899 4.06 13.1949 4.06 12.4599V4.0599H12.46C13.195 4.0599 13.79 3.4649 13.79 2.7299C13.79 1.9949 13.16 1.3999 12.425 1.3999Z" fill="#FBA819"/>
<path d="M67.27 1.3999H57.54C56.805 1.3999 56.21 1.9949 56.21 2.7299C56.21 3.4649 56.805 4.0599 57.54 4.0599H65.94V12.4599C65.94 13.1949 66.535 13.7899 67.27 13.7899C68.005 13.7899 68.6 13.1949 68.6 12.4599V2.7299C68.6 1.9949 68.005 1.3999 67.27 1.3999Z" fill="#FBA819"/>
<path d="M67.27 56.245C66.535 56.245 65.94 56.84 65.94 57.575V65.975H57.54C56.805 65.975 56.21 66.57 56.21 67.305C56.21 68.04 56.805 68.635 57.54 68.635H67.27C68.005 68.635 68.6 68.04 68.6 67.305V57.575C68.6 56.84 68.005 56.245 67.27 56.245Z" fill="#FBA819"/>
<path d="M12.425 65.975H4.025V57.575C4.025 56.84 3.43 56.245 2.695 56.245C1.96 56.245 1.4 56.84 1.4 57.575V67.305C1.4 68.04 1.995 68.635 2.73 68.635H12.46C13.195 68.635 13.79 68.04 13.79 67.305C13.79 66.57 13.16 65.975 12.425 65.975Z" fill="#FBA819"/>
</svg>
