<svg width="20" height="20" viewBox="0 0 20 20" fill="none" xmlns="http://www.w3.org/2000/svg">
<path d="M18.2495 0H1.7463C1.28319 0.000112093 0.839074 0.184133 0.511603 0.511603C0.184133 0.839074 0.000112093 1.28319 0 1.7463L0 18.2537C0.000112093 18.7168 0.184133 19.1609 0.511603 19.4884C0.839074 19.8159 1.28319 19.9999 1.7463 20H18.2537C18.7168 19.9999 19.1609 19.8159 19.4884 19.4884C19.8159 19.1609 19.9999 18.7168 20 18.2537V1.7463C19.9982 1.28297 19.8131 0.839191 19.4851 0.511961C19.157 0.184732 18.7128 0.000667077 18.2495 0V0ZM1.7463 18.6638C1.63647 18.6636 1.5312 18.6199 1.45354 18.5422C1.37588 18.4646 1.33215 18.3593 1.33192 18.2495V8.35941H11.6364V18.6638H1.7463ZM18.6638 18.2495C18.6636 18.3593 18.6199 18.4646 18.5422 18.5422C18.4646 18.6199 18.3593 18.6636 18.2495 18.6638H12.9725V7.93657L15.1501 5.75899L16.5793 7.18816C16.6177 7.22692 16.6668 7.25328 16.7203 7.26383C16.7738 7.27438 16.8293 7.26864 16.8795 7.24736C16.9294 7.22626 16.972 7.19097 17.0021 7.14588C17.0322 7.10078 17.0484 7.04785 17.0486 6.99366V3.18816C17.0487 3.15205 17.0416 3.11629 17.0278 3.08292C17.014 3.04955 16.9938 3.01923 16.9683 2.99369C16.9427 2.96816 16.9124 2.94792 16.879 2.93413C16.8457 2.92033 16.8099 2.91326 16.7738 2.91332H12.9683C12.9139 2.91326 12.8607 2.92934 12.8154 2.95954C12.7702 2.98973 12.7349 3.03268 12.7141 3.08294C12.6932 3.1332 12.6878 3.18851 12.6984 3.24187C12.7091 3.29522 12.7353 3.34423 12.7738 3.38266L14.2072 4.81607L12 7.02326H1.33192V1.7463C1.33215 1.63647 1.37588 1.5312 1.45354 1.45354C1.5312 1.37588 1.63647 1.33215 1.7463 1.33192H18.2495C18.3593 1.33215 18.4646 1.37588 18.5422 1.45354C18.6199 1.5312 18.6636 1.63647 18.6638 1.7463V18.2495Z" fill="#FBA819"/>
</svg>
