<svg width="20" height="20" viewBox="0 0 20 20" fill="none" xmlns="http://www.w3.org/2000/svg">
<path d="M17.747 1.58103H16.6798V0H15.336V1.58103H4.66403V0H3.32016V1.58103H2.25296C1.65576 1.58207 1.08332 1.81977 0.661032 2.24206C0.238746 2.66435 0.00104498 3.23679 0 3.83399V17.747C0.00104498 18.3442 0.238746 18.9167 0.661032 19.339C1.08332 19.7613 1.65576 19.999 2.25296 20H17.747C18.3442 19.999 18.9167 19.7613 19.339 19.339C19.7613 18.9167 19.999 18.3442 20 17.747V3.83399C19.999 3.23679 19.7613 2.66435 19.339 2.24206C18.9167 1.81977 18.3442 1.58207 17.747 1.58103ZM18.6561 17.747C18.6561 17.9881 18.5603 18.2194 18.3899 18.3899C18.2194 18.5603 17.9881 18.6561 17.747 18.6561H2.25296C2.01186 18.6561 1.78063 18.5603 1.61014 18.3899C1.43965 18.2194 1.34387 17.9881 1.34387 17.747V7.19368H18.6561V17.747ZM18.6561 5.8498H1.34387V3.83399C1.34387 3.59289 1.43965 3.36166 1.61014 3.19117C1.78063 3.02068 2.01186 2.9249 2.25296 2.9249H3.32016V4.50593H4.66403V2.9249H15.336V4.50593H16.6798V2.9249H17.747C17.9881 2.9249 18.2194 3.02068 18.3899 3.19117C18.5603 3.36166 18.6561 3.59289 18.6561 3.83399V5.8498Z" fill="#FBA819"/>
<path d="M17.1146 8.97229H15.5336V10.5533H17.1146V8.97229Z" fill="#FBA819"/>
<path d="M13.9526 8.97229H12.3716V10.5533H13.9526V8.97229Z" fill="#FBA819"/>
<path d="M10.7905 8.97229H9.20947V10.5533H10.7905V8.97229Z" fill="#FBA819"/>
<path d="M7.62845 8.97229H6.04742V10.5533H7.62845V8.97229Z" fill="#FBA819"/>
<path d="M4.4664 8.97229H2.88538V10.5533H4.4664V8.97229Z" fill="#FBA819"/>
<path d="M17.1146 12.1344H15.5336V13.7154H17.1146V12.1344Z" fill="#FBA819"/>
<path d="M13.9526 12.1344H12.3716V13.7154H13.9526V12.1344Z" fill="#FBA819"/>
<path d="M10.7905 12.1344H9.20947V13.7154H10.7905V12.1344Z" fill="#FBA819"/>
<path d="M7.62845 12.1344H6.04742V13.7154H7.62845V12.1344Z" fill="#FBA819"/>
<path d="M17.1146 15.2964H15.5336V16.8774H17.1146V15.2964Z" fill="#FBA819"/>
<path d="M13.9526 15.2964H12.3716V16.8774H13.9526V15.2964Z" fill="#FBA819"/>
<path d="M10.7905 15.2964H9.20947V16.8774H10.7905V15.2964Z" fill="#FBA819"/>
<path d="M7.62845 15.2964H6.04742V16.8774H7.62845V15.2964Z" fill="#FBA819"/>
<path d="M4.4664 12.1344H2.88538V13.7154H4.4664V12.1344Z" fill="#FBA819"/>
</svg>
