<svg width="72" height="71" viewBox="0 0 72 71" fill="none" xmlns="http://www.w3.org/2000/svg">
<g clip-path="url(#clip0)">
<path d="M34.2973 23.8874V7.86035H7.92871V36.3532H14.5209V13.4255H27.2658V23.4423L34.2973 23.8874Z" fill="#C0C0C0"/>
<path d="M23.5302 41.6953L25.5077 43.6989V50.1542L35.8354 38.1338H27.0459L23.5302 41.6953Z" fill="#C0C0C0"/>
<path d="M10.7855 50.822H18.2564V70.1882L10.9205 62.7568L10.7855 50.822Z" fill="#C0C0C0"/>
<path d="M20.4537 31.0107H49.8987L18.696 69.7431V50.822H7.70905L0.897095 43.6989H25.5076V50.1543L35.8354 38.1338H27.0458L20.4537 31.0107Z" fill="#FCA23B"/>
<path d="M50.5205 31.5504C50.5227 31.5479 50.5243 31.5452 50.5264 31.5428C50.5315 31.5363 50.5368 31.5296 50.5419 31.5225L50.5461 31.5166L50.5621 31.4936L50.5648 31.4896C50.5882 31.4537 50.6084 31.4158 50.6254 31.3763C50.6262 31.3749 50.6269 31.3733 50.6275 31.3717L50.6368 31.3482L50.6403 31.3393C50.643 31.332 50.6454 31.3247 50.6478 31.3171C50.6478 31.3136 50.6504 31.3099 50.6515 31.3063C50.6526 31.3028 50.6558 31.292 50.6576 31.285C50.6595 31.278 50.66 31.2766 50.6614 31.2726L50.6662 31.252C50.6662 31.2474 50.6686 31.2428 50.6694 31.238L50.6734 31.2185C50.6734 31.2134 50.6753 31.208 50.6761 31.2028C50.6769 31.1977 50.6779 31.1907 50.6787 31.1847C50.6795 31.1788 50.6803 31.1726 50.6811 31.1664C50.6819 31.1601 50.6811 31.1555 50.683 31.1501L50.6846 31.1288V31.1147C50.6846 31.1061 50.6846 31.0972 50.6846 31.0877C50.6846 31.085 50.6846 31.0823 50.6846 31.0796V31.078C50.6846 31.0661 50.6846 31.0542 50.6846 31.0423C50.6846 31.0383 50.6846 31.0345 50.6846 31.0304C50.6846 31.0264 50.6846 31.015 50.683 31.0075L50.6806 30.9872C50.6806 30.9826 50.6806 30.978 50.6787 30.9731C50.6769 30.9683 50.6766 30.9583 50.6753 30.9507C50.6739 30.9431 50.6753 30.9431 50.6731 30.9393C50.6731 30.9315 50.6702 30.9237 50.6683 30.9161C50.6683 30.9126 50.6683 30.9091 50.6659 30.9058C50.6641 30.898 50.6622 30.8902 50.66 30.8823C50.66 30.8791 50.6582 30.8758 50.6574 30.8723C50.655 30.8648 50.6528 30.8569 50.6504 30.8494C50.6491 30.8458 50.648 30.8426 50.647 30.8391L50.6392 30.8172L50.6347 30.8059C50.632 30.7991 50.6294 30.7921 50.6264 30.7853L50.6206 30.7721L50.6126 30.7542L50.6043 30.738L50.5968 30.7237L50.5851 30.7032L50.5798 30.694C50.5744 30.6851 50.5691 30.6764 50.5632 30.6669L50.5611 30.6637C50.5349 30.6243 50.505 30.5876 50.472 30.554L43.4399 23.4325C43.3025 23.2938 43.1162 23.216 42.9221 23.2163H34.8657V7.93001C34.8657 7.91757 34.8657 7.90514 34.8657 7.89298C34.8657 7.88082 34.8644 7.87217 34.8636 7.8619C34.8636 7.86028 34.8636 7.85839 34.8636 7.8565C34.852 7.7362 34.8113 7.62064 34.7451 7.52005C34.7452 7.51942 34.7452 7.51878 34.7451 7.51815C34.7395 7.50951 34.7334 7.50113 34.7275 7.49275L34.724 7.48816C34.7187 7.48086 34.7131 7.47356 34.7075 7.46654L34.7019 7.45924C34.6966 7.45275 34.6912 7.44654 34.6856 7.44032L34.6784 7.43168C34.6723 7.42465 34.6659 7.41816 34.6595 7.41168C34.6577 7.40948 34.6557 7.4074 34.6536 7.40546L27.6189 0.282114C27.4814 0.143367 27.2952 0.0656036 27.1011 0.0659189H0.732549C0.538428 0.0658472 0.352222 0.14386 0.214858 0.28281C0.0774933 0.421761 0.000212141 0.610278 0 0.806927L0 43.5459C0 43.5584 0 43.5708 0 43.5832C0 43.5935 0.00160062 43.6038 0.00240092 43.6138C0.00240092 43.6157 0.00240092 43.6175 0.00240092 43.6194C0.014059 43.7402 0.0549254 43.8561 0.12138 43.957C0.127249 43.9659 0.133385 43.9748 0.13952 43.984C0.140492 43.9851 0.141384 43.9863 0.142188 43.9875C0.14779 43.9954 0.153926 44.0029 0.159795 44.0105L0.16433 44.0164C0.170199 44.0237 0.176335 44.0308 0.18247 44.0378C0.184388 44.0397 0.186171 44.0418 0.187806 44.044L0.212615 44.071L7.24439 51.1941C7.38186 51.3329 7.56812 51.4106 7.76219 51.4103H10.5475V63.134C10.5472 63.3306 10.624 63.5193 10.7609 63.6585L17.7935 70.7824C17.8021 70.7911 17.8109 70.7997 17.8202 70.8078L17.8218 70.8095C17.8301 70.817 17.8386 70.8243 17.8485 70.8316L17.8519 70.8346L17.877 70.8543L17.8794 70.8559C17.985 70.9348 18.1098 70.9833 18.2404 70.9962H18.2452C18.2553 70.9962 18.2657 70.9981 18.2761 70.9986C18.2865 70.9992 18.3006 70.9986 18.3129 70.9986H18.3265C18.334 70.9986 18.3412 70.9986 18.3484 70.9986C18.4505 70.9937 18.5505 70.9671 18.6418 70.9205H18.644C18.6541 70.9154 18.664 70.91 18.6739 70.9043L18.6789 70.9013C18.6877 70.8962 18.6963 70.8908 18.7056 70.8854L18.7131 70.8805L18.7355 70.8651L18.7446 70.8586C18.7512 70.8535 18.7579 70.8486 18.7643 70.8432L18.7747 70.8351L18.7926 70.82L18.803 70.8105C18.8088 70.8054 18.8144 70.7997 18.82 70.7943L18.8299 70.7849C18.8366 70.7781 18.8433 70.7711 18.8497 70.7641L18.8555 70.7578C18.8638 70.7486 18.8721 70.7389 18.8801 70.7292L50.5187 31.5528L50.5205 31.5504ZM42.6188 24.7002L48.1855 30.3394H20.8019V14.0167H26.3686V23.9571C26.3684 24.0546 26.3872 24.1513 26.4239 24.2414C26.4607 24.3316 26.5146 24.4135 26.5827 24.4826C26.6507 24.5516 26.7315 24.6064 26.8205 24.6437C26.9094 24.6811 27.0048 24.7003 27.1011 24.7002H42.6188ZM26.0756 43.547C26.0756 43.5346 26.0756 43.5222 26.0756 43.5097C26.0756 43.4973 26.0756 43.4892 26.0735 43.4789C26.0735 43.477 26.0735 43.4751 26.0735 43.4735C26.0618 43.353 26.0211 43.2373 25.9548 43.1365V43.1352C25.9489 43.1263 25.9428 43.1176 25.9367 43.1081L25.934 43.1041L25.9164 43.0814L25.9116 43.0752C25.906 43.0681 25.9001 43.0614 25.894 43.0544C25.8921 43.0522 25.8902 43.0498 25.8881 43.0476C25.8801 43.0387 25.8721 43.03 25.8636 43.0206L24.6228 41.7661L27.4167 38.9456H34.2993L26.0756 48.6633V43.547ZM23.5862 40.7178L18.8294 35.898C18.6919 35.7593 18.5057 35.6815 18.3116 35.6819H15.5281V14.0145H19.337V31.0804C19.337 31.0928 19.337 31.105 19.337 31.1174C19.337 31.1342 19.3395 31.1507 19.3413 31.1669C19.3413 31.1699 19.3413 31.1728 19.3413 31.1758C19.3458 31.2097 19.3525 31.2433 19.3613 31.2763V31.2777C19.3707 31.3119 19.3825 31.3454 19.3965 31.378V31.3796C19.4035 31.3955 19.4109 31.4112 19.4189 31.4263C19.4267 31.4415 19.4352 31.4561 19.444 31.4706L19.4483 31.4771C19.4566 31.4901 19.4648 31.5042 19.475 31.5152L19.4782 31.5198C19.4875 31.5328 19.4976 31.5469 19.508 31.5577L19.5155 31.5666C19.5262 31.5787 19.5369 31.5909 19.5483 31.6025L26.0671 38.2065L23.5862 40.7178ZM8.49661 35.6808V8.67209H33.3995V23.2152H27.8334V13.2724C27.8334 13.0757 27.7562 12.887 27.6189 12.7478C27.4816 12.6086 27.2953 12.5304 27.1011 12.5304H14.7956C14.6013 12.5304 14.4151 12.6086 14.2777 12.7478C14.1404 12.887 14.0633 13.0757 14.0633 13.2724V35.6808H8.49661ZM26.797 1.54902L32.3642 7.18846H7.76299C7.56873 7.18853 7.38244 7.26674 7.24508 7.40589C7.10771 7.54504 7.03051 7.73375 7.03044 7.93055V36.4229C7.03051 36.6196 7.10772 36.8083 7.24509 36.9474C7.38247 37.0865 7.56875 37.1647 7.76299 37.1647H18.0069L23.5747 42.8039H1.46483V1.54875L26.797 1.54902ZM8.06737 49.9272L2.5007 44.288H24.6105V50.669C24.6105 50.8206 24.6564 50.9686 24.7419 51.0931C24.8275 51.2175 24.9486 51.3124 25.089 51.365C25.2293 51.4176 25.3823 51.4254 25.5271 51.3873C25.672 51.3492 25.8019 51.2671 25.8993 51.1519L36.4466 38.6864C36.5378 38.5787 36.5965 38.4468 36.6159 38.3062C36.6353 38.1657 36.6145 38.0225 36.556 37.8936C36.4975 37.7647 36.4037 37.6554 36.2858 37.5789C36.1678 37.5023 36.0307 37.4617 35.8906 37.4617H27.4044L21.8377 31.8225H48.408L19.0415 68.1824L19.0207 50.6682C19.0204 50.4716 18.9431 50.2831 18.8057 50.1442C18.6684 50.0052 18.4822 49.9272 18.2881 49.9272H8.06737ZM12.0124 51.4111H17.5556L17.5769 68.4635L12.0124 62.8273V51.4111Z" fill="#231300"/>
<path d="M46.8664 0V5.52486H47.8566V7.63816C47.8586 7.68491 47.8503 7.73152 47.8325 7.77468C47.8146 7.81783 47.7876 7.85648 47.7534 7.88787C47.678 7.95263 47.5813 7.98613 47.4826 7.98164H46.7695V6.44774H42.0963V7.63681C42.0982 7.68358 42.0899 7.73019 42.072 7.77335C42.0541 7.8165 42.027 7.85514 41.9928 7.88652C41.9174 7.9513 41.8207 7.98481 41.722 7.98029H41.0089V5.52486H41.7001C41.7947 5.46953 41.8783 5.39686 41.9466 5.31056C42.0288 5.21255 42.108 5.07436 42.1843 4.896C42.2739 4.67678 42.3468 4.45091 42.4022 4.22039C42.482 3.89069 42.5443 3.55691 42.589 3.22049C42.6446 2.82684 42.6923 2.36463 42.732 1.83387C42.7716 1.30311 42.8013 0.691823 42.8211 0H46.8664ZM43.9391 0.922882C43.9035 1.55597 43.8559 2.11781 43.7961 2.60839C43.7364 3.09897 43.6666 3.5301 43.587 3.90178C43.521 4.22599 43.4319 4.54491 43.3202 4.85601C43.237 5.08881 43.1316 5.31282 43.0054 5.52486H45.6774V0.922882H43.9391Z" fill="#231300"/>
<path d="M48.5171 6.45208V1.87713H49.6042V4.54822C49.6042 4.61668 49.6005 4.69172 49.5932 4.77333C49.5858 4.8544 49.5764 4.93764 49.5647 5.02087C49.6187 4.89491 49.6835 4.774 49.7584 4.65956C49.7613 4.65388 49.789 4.61362 49.8419 4.5393C49.8947 4.46498 49.963 4.36851 50.0467 4.24933L50.3306 3.84585C50.4362 3.69578 50.5429 3.54192 50.6507 3.38428C50.9061 3.01891 51.1966 2.60571 51.5222 2.14467C51.5671 2.07513 51.6221 2.01282 51.6852 1.95982C51.7484 1.90339 51.8299 1.87243 51.9141 1.87281H52.5744V6.44776H51.487V3.77667C51.487 3.70857 51.49 3.63398 51.4958 3.55372C51.502 3.47153 51.5123 3.38972 51.5268 3.30861C51.4944 3.37689 51.4621 3.44157 51.4299 3.50265C51.4006 3.55842 51.3682 3.61255 51.3331 3.66479C51.3272 3.67074 51.2979 3.71163 51.2451 3.78748C51.1923 3.86333 51.1241 3.96062 51.0405 4.07934L50.7564 4.48309C50.6507 4.63316 50.544 4.78549 50.4362 4.94007C50.1808 5.3058 49.8918 5.719 49.569 6.17968C49.5236 6.24735 49.4698 6.30884 49.4089 6.36263C49.3472 6.42033 49.2661 6.45211 49.1821 6.45154L48.5171 6.45208Z" fill="#231300"/>
<path d="M53.6494 7.94143V1.87283H54.3142C54.4551 1.87283 54.5475 1.93968 54.5916 2.07336L54.6797 2.4971C54.857 2.2896 55.0694 2.11573 55.3068 1.98363C55.543 1.8532 55.8196 1.78789 56.1365 1.78771C56.3707 1.78483 56.6023 1.83827 56.8122 1.94364C57.0203 2.05131 57.2011 2.20622 57.3404 2.3963C57.4885 2.59448 57.603 2.83824 57.6837 3.12758C57.7645 3.41692 57.8048 3.74914 57.8048 4.12424C57.8077 4.44601 57.7617 4.76631 57.6683 5.07387C57.5856 5.34827 57.4535 5.60481 57.2788 5.83055C57.1139 6.04148 56.9049 6.21277 56.6668 6.33213C56.4167 6.4551 56.1416 6.51693 55.8636 6.51265C55.6082 6.51265 55.3918 6.47328 55.2143 6.39455C55.0366 6.31582 54.8748 6.20471 54.7368 6.06675V7.93954L53.6494 7.94143ZM55.7622 2.65762C55.536 2.65762 55.343 2.70591 55.1833 2.80247C55.0113 2.91006 54.8599 3.04831 54.7365 3.21054V5.26169C54.8597 5.41627 54.994 5.52437 55.1393 5.58598C55.2895 5.64795 55.4504 5.679 55.6125 5.67733C55.7657 5.67975 55.9175 5.64782 56.057 5.58382C56.1921 5.51915 56.3085 5.42031 56.395 5.29682C56.4955 5.15063 56.5679 4.9865 56.6084 4.81309C56.6617 4.58755 56.6868 4.35612 56.6831 4.12424C56.6869 3.8958 56.6655 3.66765 56.6193 3.44403C56.5766 3.25846 56.5157 3.10758 56.4366 2.99137C56.3648 2.88194 56.2652 2.79417 56.1482 2.73734C56.027 2.68214 55.8951 2.65491 55.7622 2.65762Z" fill="#231300"/>
<path d="M60.5686 1.80139C60.8375 1.79862 61.1046 1.84541 61.357 1.93948C61.5902 2.02698 61.8019 2.16473 61.9775 2.34322C62.1564 2.5292 62.2952 2.75092 62.3848 2.99424C62.483 3.25133 62.5321 3.54482 62.5321 3.87469C62.5321 4.04152 62.5143 4.15377 62.4787 4.21142C62.4432 4.26907 62.3757 4.29808 62.2762 4.29844H59.4816C59.4936 4.50624 59.5351 4.71122 59.6048 4.90702C59.661 5.06419 59.7478 5.2083 59.8601 5.33077C59.9653 5.44182 60.094 5.52721 60.2365 5.58047C60.3909 5.637 60.5541 5.66492 60.7183 5.6629C60.8725 5.66603 61.0262 5.64497 61.1739 5.60047C61.2891 5.56404 61.401 5.51784 61.5085 5.46238C61.6038 5.41175 61.6874 5.36563 61.7592 5.32401C61.8223 5.28498 61.8945 5.26345 61.9684 5.26158C62.0081 5.25906 62.0477 5.2672 62.0832 5.28519C62.1188 5.30318 62.149 5.33037 62.1709 5.36401L62.4835 5.76532C62.367 5.90482 62.2305 6.02587 62.0786 6.12447C61.9316 6.21961 61.7743 6.29741 61.6099 6.35634C61.4484 6.41378 61.2818 6.45478 61.1123 6.47876C60.9497 6.5021 60.7857 6.51401 60.6215 6.51443C60.3224 6.51714 60.0254 6.46353 59.7457 6.35634C59.4802 6.25376 59.2399 6.09396 59.0414 5.88801C58.8335 5.66822 58.6731 5.40704 58.5703 5.12106C58.4559 4.8164 58.3987 4.46337 58.3987 4.06197C58.3967 3.76182 58.4474 3.46369 58.5484 3.18152C58.6427 2.91554 58.7887 2.67139 58.9776 2.46348C59.1694 2.25603 59.4017 2.09129 59.6598 1.97975C59.9283 1.86084 60.2313 1.80139 60.5686 1.80139ZM60.5908 2.5905C60.2739 2.5905 60.0259 2.68121 59.8468 2.86263C59.6677 3.04406 59.5532 3.30115 59.5034 3.63391H61.5546C61.5555 3.49713 61.5355 3.36104 61.4954 3.23043C61.4582 3.10886 61.3975 2.99597 61.3169 2.8983C61.2348 2.8009 61.1316 2.72389 61.0155 2.67319C60.8813 2.61557 60.7365 2.58739 60.5908 2.5905Z" fill="#231300"/>
<path d="M66.0444 2.16185C66.0981 2.07501 66.1722 2.00304 66.2602 1.95241C66.3481 1.89942 66.4484 1.87141 66.5507 1.87134H67.4044L66.3522 3.57036C66.2897 3.67542 66.2143 3.77204 66.1279 3.8579C66.0475 3.93308 65.9532 3.99141 65.8504 4.0295C65.9845 4.06716 66.1083 4.13549 66.2122 4.22921C66.3133 4.32627 66.3994 4.43824 66.4675 4.56134L67.5239 6.44764H66.7713C66.5807 6.44764 66.4324 6.41494 66.3266 6.34954C66.2161 6.27914 66.124 6.18272 66.0582 6.06849L65.3935 4.8024C65.3424 4.70048 65.2637 4.61537 65.1667 4.55702C65.0679 4.50157 64.9563 4.4736 64.8434 4.47595H64.4339V6.44683H63.3468V1.87269H64.4339V3.75872H64.786C64.9093 3.75872 65.0083 3.73575 65.0832 3.68981C65.164 3.63709 65.23 3.5641 65.2747 3.47794L66.0444 2.16185Z" fill="#231300"/>
<path d="M67.6952 1.8728H72.0012V2.68867H70.3902V6.44776H69.3028V2.68867H67.6963L67.6952 1.8728Z" fill="#231300"/>
<path d="M46.7871 10.7017V17.1494H45.5944V11.6245H43.8569C43.8159 12.4333 43.7579 13.1327 43.683 13.7227C43.6081 14.3127 43.5179 14.8151 43.4122 15.2299C43.3066 15.6442 43.1878 15.9809 43.0558 16.2398C42.9239 16.4987 42.7786 16.7001 42.6199 16.844C42.4744 16.9807 42.2997 17.0814 42.1093 17.1383C41.923 17.1908 41.7305 17.217 41.5371 17.2162C41.3258 17.2162 41.1718 17.1969 41.0751 17.1583C40.9783 17.1198 40.9299 17.0633 40.9297 16.9889V16.2398H41.2688C41.3465 16.2395 41.424 16.2304 41.4998 16.2127C41.5845 16.1916 41.664 16.1529 41.7332 16.099C41.8226 16.0283 41.8999 15.9432 41.9621 15.8471C42.0506 15.7085 42.1225 15.5597 42.1763 15.4039C42.2562 15.1806 42.3209 14.9519 42.37 14.7196C42.4303 14.4494 42.4846 14.1238 42.533 13.743C42.5813 13.3621 42.6239 12.9214 42.6605 12.4209C42.6973 11.9199 42.724 11.3469 42.7405 10.7019L46.7871 10.7017Z" fill="#231300"/>
<path d="M52.5752 15.6288C52.6074 15.6289 52.6393 15.6358 52.6688 15.6488C52.6984 15.6619 52.725 15.6809 52.747 15.7047L53.2136 16.2182C52.9586 16.5394 52.6318 16.7944 52.2601 16.9622C51.8833 17.1346 51.4307 17.2208 50.9023 17.2208C50.4299 17.2208 50.0051 17.139 49.6279 16.9754C49.2619 16.8199 48.9326 16.5874 48.6619 16.2933C48.3889 15.9919 48.18 15.6367 48.0484 15.2499C47.9061 14.8456 47.835 14.4042 47.835 13.9257C47.835 13.4414 47.9113 12.9978 48.0638 12.5948C48.207 12.207 48.4263 11.8528 48.7086 11.5535C48.9896 11.2598 49.3276 11.0283 49.7013 10.8736C50.0854 10.7114 50.5109 10.6304 50.9778 10.6304C51.4411 10.6304 51.8526 10.7077 52.2124 10.8622C52.5531 11.0044 52.8643 11.2101 53.1301 11.4687L52.7336 12.0259C52.7094 12.0624 52.6788 12.0942 52.6435 12.1197C52.5983 12.1488 52.5452 12.1629 52.4917 12.1599C52.4437 12.1589 52.3968 12.1458 52.3551 12.1218C52.3081 12.0967 52.2567 12.0654 52.2012 12.0283C52.1457 11.9913 52.0806 11.9502 52.0075 11.9057C51.9264 11.8573 51.8414 11.8162 51.7533 11.7827C51.6437 11.742 51.531 11.7107 51.4163 11.6892C51.2705 11.6621 51.1223 11.6494 50.974 11.6511C50.7059 11.6478 50.44 11.7002 50.1927 11.8051C49.9591 11.9057 49.7508 12.058 49.5831 12.251C49.4051 12.4595 49.2704 12.7021 49.1869 12.9645C49.093 13.2452 49.0461 13.5654 49.0461 13.9252C49.0461 14.2882 49.0967 14.6108 49.1979 14.8929C49.2878 15.1557 49.4276 15.3981 49.6095 15.6064C49.7795 15.7973 49.9882 15.9487 50.2215 16.0501C50.4607 16.1535 50.7185 16.2059 50.9786 16.2039C51.1249 16.2047 51.2712 16.1957 51.4163 16.1768C51.5392 16.161 51.6601 16.1325 51.7773 16.092C51.8865 16.0539 51.9914 16.0039 52.0899 15.9428C52.1944 15.8771 52.2927 15.8018 52.3834 15.7177C52.4111 15.6919 52.4423 15.67 52.4759 15.6528C52.5068 15.6372 52.5407 15.629 52.5752 15.6288Z" fill="#231300"/>
<path d="M58.4734 10.7017V11.687H56.5551V17.1494H55.3709V11.687H53.452V10.7017H58.4734Z" fill="#231300"/>
<path d="M60.4937 13.4041H61.0923C61.1998 13.4067 61.3065 13.3854 61.405 13.3417C61.493 13.3001 61.5752 13.2228 61.6515 13.1098L63.0467 11.023C63.1007 10.9332 63.1709 10.8545 63.2537 10.7911C63.3368 10.7304 63.4373 10.6991 63.5397 10.7019H64.5521L62.8223 13.2882C62.7534 13.3964 62.6662 13.4914 62.5646 13.5689C62.4672 13.6429 62.3593 13.7016 62.2445 13.743C62.4093 13.7874 62.562 13.869 62.6914 13.9816C62.8302 14.1117 62.9483 14.2629 63.0414 14.4297L64.7095 17.1497H63.6355C63.5349 17.1532 63.4362 17.1218 63.3559 17.0605C63.2701 16.9873 63.1992 16.8979 63.147 16.7973L61.7913 14.6302C61.7606 14.5742 61.7229 14.5225 61.679 14.4764C61.6412 14.4378 61.5983 14.4048 61.5514 14.3783C61.5034 14.3523 61.4512 14.3349 61.3973 14.327C61.3324 14.3176 61.267 14.3131 61.2014 14.3137H60.4926V17.1494H59.3087V10.7017H60.4926L60.4937 13.4041Z" fill="#231300"/>
</g>
<defs>
<clipPath id="clip0">
<rect width="72" height="71" fill="white"/>
</clipPath>
</defs>
</svg>
