<svg width="58" height="58" viewBox="0 0 58 58" fill="none" xmlns="http://www.w3.org/2000/svg">
<g clip-path="url(#clip0)">
<path d="M49.2997 44.4541C48.3425 44.4541 47.4067 44.7379 46.6109 45.2697C45.815 45.8014 45.1948 46.5572 44.8286 47.4414C44.4625 48.3257 44.3668 49.2986 44.5538 50.2372C44.7408 51.1757 45.202 52.0378 45.879 52.7143C46.5561 53.3908 47.4187 53.8513 48.3576 54.0376C49.2965 54.2239 50.2695 54.1277 51.1537 53.761C52.0379 53.3944 52.7934 52.7738 53.3248 51.9777C53.8561 51.1817 54.1394 50.246 54.1388 49.289C54.138 48.0064 53.6278 46.7766 52.7203 45.87C51.8129 44.9634 50.5826 44.4541 49.2997 44.4541ZM49.2997 52.1906C48.7257 52.1906 48.1646 52.0204 47.6873 51.7016C47.21 51.3827 46.8381 50.9296 46.6184 50.3994C46.3987 49.8692 46.3413 49.2858 46.4532 48.7229C46.5652 48.1601 46.8416 47.6431 47.2475 47.2373C47.6534 46.8315 48.1705 46.5551 48.7335 46.4432C49.2965 46.3312 49.88 46.3887 50.4103 46.6083C50.9406 46.8279 51.3939 47.1998 51.7128 47.677C52.0317 48.1541 52.2019 48.7151 52.2019 49.289C52.2011 50.0583 51.895 50.7958 51.3509 51.3398C50.8068 51.8838 50.0691 52.1897 49.2997 52.1906Z" fill="#FBA819"/>
<path d="M56.0631 43.8328V11.5969C56.0614 11.0838 55.8568 10.5923 55.494 10.2295C55.1311 9.86665 54.6394 9.66209 54.1262 9.66043H44.4574C43.9442 9.66209 43.4525 9.86665 43.0897 10.2295C42.7268 10.5923 42.5222 11.0838 42.5205 11.5969V37.6922C42.5205 37.8178 42.5455 37.9421 42.594 38.0579C42.6426 38.1738 42.7137 38.2788 42.8033 38.3669C42.8928 38.4549 42.999 38.5243 43.1157 38.5709C43.2323 38.6175 43.3571 38.6404 43.4827 38.6384H45.4196C45.6748 38.6384 45.9195 38.537 46.0999 38.3566C46.2804 38.1762 46.3817 37.9315 46.3817 37.6764C46.3817 37.4213 46.2804 37.1766 46.0999 36.9962C45.9195 36.8158 45.6748 36.7145 45.4196 36.7145H44.4732V34.778H45.4196C45.6656 34.7639 45.897 34.6563 46.0662 34.4771C46.2354 34.298 46.3297 34.0609 46.3297 33.8145C46.3297 33.5681 46.2354 33.331 46.0662 33.1518C45.897 32.9727 45.6656 32.865 45.4196 32.851H44.4732V30.9145H47.3723C47.6274 30.9145 47.8722 30.8131 48.0526 30.6327C48.233 30.4523 48.3344 30.2077 48.3344 29.9525C48.3344 29.6974 48.233 29.4528 48.0526 29.2724C47.8722 29.092 47.6274 28.9906 47.3723 28.9906H44.4574V27.0699H45.4038C45.6499 27.0558 45.8812 26.9482 46.0504 26.769C46.2197 26.5899 46.3139 26.3528 46.3139 26.1064C46.3139 25.86 46.2197 25.6229 46.0504 25.4437C45.8812 25.2646 45.6499 25.1569 45.4038 25.1429H44.4574V23.2064H45.4038C45.659 23.2064 45.9037 23.105 46.0841 22.9246C46.2646 22.7442 46.3659 22.4996 46.3659 22.2444C46.3659 21.9893 46.2646 21.7447 46.0841 21.5643C45.9037 21.3839 45.659 21.2825 45.4038 21.2825H44.4574V19.346H45.4038C45.6499 19.3319 45.8812 19.2243 46.0504 19.0451C46.2197 18.866 46.3139 18.6289 46.3139 18.3825C46.3139 18.1361 46.2197 17.899 46.0504 17.7199C45.8812 17.5407 45.6499 17.4331 45.4038 17.419H44.4574V15.4825H47.3565C47.6117 15.4825 47.8564 15.3812 48.0368 15.2008C48.2173 15.0204 48.3186 14.7757 48.3186 14.5206C48.3186 14.2655 48.2173 14.0208 48.0368 13.8404C47.8564 13.66 47.6117 13.5586 47.3565 13.5586H44.4574V11.619H54.1199V42.0887C52.4473 40.9671 50.437 40.4609 48.4326 40.6565C46.4281 40.8521 44.5537 41.7375 43.1296 43.1613C41.7055 44.5851 40.82 46.459 40.6243 48.4631C40.4286 50.4671 40.935 52.4769 42.0568 54.1492H15.4637V44.4888H17.4006V47.3872C17.4006 47.6424 17.502 47.887 17.6825 48.0674C17.8629 48.2478 18.1076 48.3492 18.3628 48.3492C18.618 48.3492 18.8627 48.2478 19.0431 48.0674C19.2236 47.887 19.3249 47.6424 19.3249 47.3872V44.4888H21.2618V45.4508C21.2759 45.6968 21.3836 45.9281 21.5628 46.0973C21.742 46.2664 21.9791 46.3607 22.2256 46.3607C22.472 46.3607 22.7092 46.2664 22.8883 46.0973C23.0675 45.9281 23.1752 45.6968 23.1893 45.4508V44.4888H25.1262V45.4508C25.1262 45.7059 25.2276 45.9505 25.408 46.1309C25.5884 46.3113 25.8332 46.4127 26.0883 46.4127C26.3435 46.4127 26.5882 46.3113 26.7687 46.1309C26.9491 45.9505 27.0505 45.7059 27.0505 45.4508V44.4888H29V45.4508C29 45.7059 29.1014 45.9505 29.2818 46.1309C29.4623 46.3113 29.707 46.4127 29.9622 46.4127C30.2173 46.4127 30.4621 46.3113 30.6425 46.1309C30.8229 45.9505 30.9243 45.7059 30.9243 45.4508V44.4888H32.8644V47.3872C32.8644 47.6424 32.9657 47.887 33.1462 48.0674C33.3266 48.2478 33.5713 48.3492 33.8265 48.3492C34.0817 48.3492 34.3264 48.2478 34.5069 48.0674C34.6873 47.887 34.7887 47.6424 34.7887 47.3872V44.4888H36.7256V45.4508C36.7397 45.6968 36.8473 45.9281 37.0265 46.0973C37.2057 46.2664 37.4428 46.3607 37.6893 46.3607C37.9358 46.3607 38.1729 46.2664 38.3521 46.0973C38.5313 45.9281 38.6389 45.6968 38.653 45.4508V43.4922C38.653 43.3656 38.628 43.2403 38.5795 43.1233C38.5309 43.0064 38.4598 42.9002 38.3701 42.8109C38.2804 42.7215 38.174 42.6507 38.0569 42.6026C37.9398 42.5544 37.8143 42.5298 37.6877 42.5303H15.4637C15.2083 42.5237 14.9542 42.5694 14.7171 42.6645C14.48 42.7597 14.2649 42.9024 14.0849 43.0838C13.905 43.2651 13.7641 43.4814 13.6708 43.7192C13.5775 43.957 13.5339 44.2114 13.5426 44.4667V54.1271C13.5338 54.3838 13.5779 54.6395 13.6721 54.8784C13.7663 55.1174 13.9087 55.3344 14.0903 55.516C14.272 55.6976 14.489 55.8399 14.728 55.9341C14.967 56.0283 15.2228 56.0724 15.4795 56.0636H43.8265C45.4966 57.4165 47.6087 58.1029 49.7552 57.9904C51.9018 57.8778 53.9305 56.9742 55.4498 55.4541C56.9692 53.9339 57.8714 51.9049 57.9823 49.7588C58.0932 47.6126 57.405 45.5015 56.0505 43.8328H56.0631ZM49.2997 56.051C47.962 56.051 46.6544 55.6544 45.5422 54.9114C44.4299 54.1684 43.563 53.1123 43.0511 51.8767C42.5392 50.6411 42.4053 49.2815 42.6663 47.9698C42.9272 46.6582 43.5714 45.4533 44.5173 44.5076C45.4631 43.562 46.6683 42.9179 47.9802 42.657C49.2922 42.3961 50.6521 42.53 51.8879 43.0418C53.1238 43.5536 54.1801 44.4203 54.9233 45.5323C55.6664 46.6443 56.0631 47.9517 56.0631 49.289C56.0606 51.0816 55.3472 52.8001 54.0794 54.0677C52.8115 55.3352 51.0927 56.0485 49.2997 56.051Z" fill="#FBA819"/>
<path d="M50.2618 6.76186C50.264 6.63495 50.2405 6.50891 50.1929 6.39124C50.1453 6.27356 50.0745 6.16667 49.9848 6.07692C49.895 5.98717 49.7881 5.91639 49.6704 5.8688C49.5527 5.82122 49.4266 5.79779 49.2997 5.79993H11.5994C11.6174 5.02709 11.4807 4.25844 11.1973 3.53917C10.914 2.81991 10.4897 2.16453 9.94934 1.61156C9.409 1.0586 8.76355 0.619206 8.05093 0.319215C7.33831 0.0192229 6.57289 -0.135315 5.79967 -0.135315C5.02646 -0.135315 4.26104 0.0192229 3.54842 0.319215C2.8358 0.619206 2.19035 1.0586 1.65001 1.61156C1.10968 2.16453 0.685361 2.81991 0.402002 3.53917C0.118643 4.25844 -0.0180389 5.02709 -9.52254e-06 5.79993V52.1905C-1.3151e-05 53.7291 0.610454 55.2048 1.69745 56.2939C2.78444 57.3831 4.25919 57.9966 5.7981 57.9999H10.6372C10.8924 57.9999 11.1371 57.8986 11.3176 57.7182C11.498 57.5378 11.5994 57.2931 11.5994 57.038C11.5994 56.7829 11.498 56.5382 11.3176 56.3578C11.1371 56.1774 10.8924 56.0761 10.6372 56.0761H5.7981C5.03434 56.0761 4.28771 55.8498 3.65249 55.4258C3.01728 55.0018 2.52197 54.3992 2.22912 53.6939C1.93627 52.9887 1.85901 52.2125 2.0071 51.4634C2.15519 50.7143 2.52198 50.0259 3.06116 49.4851C3.60034 48.9443 4.28772 48.5753 5.03649 48.4248C5.78527 48.2743 6.56187 48.349 7.2682 48.6395C7.97453 48.93 8.57893 49.4232 9.00506 50.0569C9.4312 50.6906 9.65996 51.4363 9.66245 52.1999C9.66245 52.4551 9.76382 52.6997 9.94426 52.8801C10.1247 53.0605 10.3694 53.1619 10.6246 53.1619C10.8798 53.1619 11.1245 53.0605 11.3049 52.8801C11.4854 52.6997 11.5867 52.4551 11.5867 52.1999V7.73011H49.2902C49.5474 7.73011 49.794 7.6282 49.9761 7.44671C50.1582 7.26522 50.261 7.01895 50.2618 6.76186ZM9.66245 47.8759C8.60326 46.9196 7.22685 46.3902 5.79967 46.3902C4.3725 46.3902 2.99609 46.9196 1.9369 47.8759V5.79993C1.92214 5.28348 2.01113 4.76933 2.19861 4.28787C2.38609 3.80642 2.66826 3.36745 3.02841 2.99694C3.38856 2.62643 3.81938 2.3319 4.29539 2.13078C4.77139 1.92966 5.28291 1.82604 5.79967 1.82604C6.31644 1.82604 6.82796 1.92966 7.30396 2.13078C7.77997 2.3319 8.21079 2.62643 8.57094 2.99694C8.93109 3.36745 9.21326 3.80642 9.40074 4.28787C9.58822 4.76933 9.67721 5.28348 9.66245 5.79993V47.8759Z" fill="#FBA819"/>
<path d="M37.0189 13.2527C37.1079 13.3426 37.2141 13.4138 37.3312 13.4621C37.4482 13.5103 37.5737 13.5345 37.7003 13.5334C37.8266 13.5357 37.952 13.512 38.0687 13.4637C38.1854 13.4154 38.2909 13.3436 38.3785 13.2527C38.5587 13.0698 38.6596 12.8234 38.6596 12.5667C38.6596 12.31 38.5587 12.0636 38.3785 11.8807L36.4416 9.94424C36.3539 9.8523 36.2459 9.7821 36.1262 9.73923C36.0099 9.69023 35.8849 9.66498 35.7587 9.66498C35.6324 9.66498 35.5075 9.69023 35.3912 9.73923C35.2732 9.79124 35.1662 9.86507 35.0757 9.95685L33.1388 11.8933C32.9596 12.0761 32.8593 12.3218 32.8593 12.5777C32.8593 12.8337 32.9596 13.0794 33.1388 13.2621C33.2288 13.3524 33.3357 13.4241 33.4534 13.473C33.5712 13.5219 33.6974 13.547 33.8249 13.547C33.9524 13.547 34.0787 13.5219 34.1964 13.473C34.3141 13.4241 34.4211 13.3524 34.511 13.2621L34.795 12.9783V35.3709L34.511 35.087C34.3261 34.9203 34.0842 34.8309 33.8353 34.8373C33.5863 34.8437 33.3493 34.9454 33.1733 35.1215C32.9972 35.2975 32.8954 35.5345 32.889 35.7834C32.8826 36.0322 32.972 36.2741 33.1388 36.459L35.0757 38.3955C35.1666 38.486 35.2736 38.5587 35.3912 38.6099C35.5092 38.6593 35.6355 38.6861 35.7634 38.6888C35.8928 38.69 36.0209 38.6631 36.1388 38.6099C36.2572 38.5602 36.3645 38.4873 36.4543 38.3955L38.3912 36.459C38.558 36.2741 38.6474 36.0322 38.641 35.7834C38.6345 35.5345 38.5328 35.2975 38.3567 35.1215C38.1806 34.9454 37.9436 34.8437 37.6947 34.8373C37.4457 34.8309 37.2038 34.9203 37.0189 35.087L36.735 35.3709V12.9783L37.0189 13.2527Z" fill="#FBA819"/>
</g>
<defs>
<clipPath id="clip0">
<rect width="58" height="58" fill="white"/>
</clipPath>
</defs>
</svg>
