<svg width="16" height="16" viewBox="0 0 16 16" fill="none" xmlns="http://www.w3.org/2000/svg">
<path d="M7.25752 4.67639C7.12157 4.55668 6.9464 4.47861 6.75033 4.47861C6.33725 4.47861 6 4.81431 6 5.22548C6 5.44408 6.09412 5.63665 6.24575 5.77457L6.24314 5.77717L8.64052 7.96313L6.24314 10.1517L6.24575 10.1543C6.09673 10.2896 6 10.4848 6 10.7034C6 11.1146 6.33726 11.4503 6.75033 11.4503C6.94641 11.4503 7.12157 11.3748 7.2549 11.2525L7.25752 11.2551L10.2588 8.51743C10.4131 8.3743 10.502 8.17652 10.502 7.96573C10.502 7.75495 10.4131 7.55717 10.2588 7.41404L7.25752 4.67639ZM8 -1.39232e-06C3.5817 -6.23358e-07 6.26244e-07 3.56519 1.39876e-06 7.96313C2.17128e-06 12.3611 3.5817 15.9263 8 15.9263C12.4183 15.9263 16 12.3611 16 7.96313C16 3.56519 12.4183 -2.16128e-06 8 -1.39232e-06ZM8 14.4325C4.41569 14.4325 1.50066 11.5309 1.50065 7.96313C1.50065 4.39534 4.41569 1.49374 8 1.49374C11.5843 1.49374 14.4993 4.39533 14.4993 7.96313C14.4993 11.5309 11.5843 14.4325 8 14.4325Z" fill="black"/>
</svg>
